<?xml version="1.0" encoding="UTF-8" standalone="no"?>
<!-- Created with Inkscape (http://www.inkscape.org/) -->

<svg
   xmlns:dc="http://purl.org/dc/elements/1.1/"
   xmlns:cc="http://creativecommons.org/ns#"
   xmlns:rdf="http://www.w3.org/1999/02/22-rdf-syntax-ns#"
   xmlns:svg="http://www.w3.org/2000/svg"
   xmlns="http://www.w3.org/2000/svg"
   xmlns:sodipodi="http://sodipodi.sourceforge.net/DTD/sodipodi-0.dtd"
   xmlns:inkscape="http://www.inkscape.org/namespaces/inkscape"
   width="268.5"
   height="210.00687"
   id="svg5433"
   sodipodi:version="0.32"
   inkscape:version="0.47pre1 r21720"
   version="1.0"
   sodipodi:docname="Infinite_potential_well.svg"
   inkscape:output_extension="org.inkscape.output.svg.inkscape">
  <defs
     id="defs5435">
    <marker
       inkscape:stockid="Arrow1Mend"
       orient="auto"
       refY="0"
       refX="0"
       id="Arrow1Mend"
       style="overflow:visible">
      <path
         id="path2922"
         d="M 0,0 5,-5 -12.5,0 5,5 0,0 z"
         style="fill-rule:evenodd;stroke:#000000;stroke-width:1pt;marker-start:none"
         transform="matrix(-0.4,0,0,-0.4,-4,0)" />
    </marker>
    <marker
       inkscape:stockid="Arrow1Mstart"
       orient="auto"
       refY="0"
       refX="0"
       id="Arrow1Mstart"
       style="overflow:visible">
      <path
         id="path2925"
         d="M 0,0 5,-5 -12.5,0 5,5 0,0 z"
         style="fill-rule:evenodd;stroke:#000000;stroke-width:1pt;marker-start:none"
         transform="matrix(0.4,0,0,0.4,4,0)" />
    </marker>
  </defs>
  <sodipodi:namedview
     id="base"
     pagecolor="#ffffff"
     bordercolor="#666666"
     borderopacity="1.0"
     gridtolerance="10000"
     guidetolerance="10"
     objecttolerance="10"
     inkscape:pageopacity="0.0"
     inkscape:pageshadow="2"
     inkscape:zoom="2.118749"
     inkscape:cx="138.06332"
     inkscape:cy="-50.929516"
     inkscape:document-units="cm"
     inkscape:current-layer="layer1"
     inkscape:grid-points="true"
     inkscape:grid-bbox="false"
     grid_units="cm"
     showgrid="false"
     height="220px"
     width="275px"
     inkscape:window-width="1280"
     inkscape:window-height="727"
     inkscape:window-x="0"
     inkscape:window-y="25"
     showguides="true"
     inkscape:guide-bbox="true"
     inkscape:window-maximized="1">
    <inkscape:grid
       id="GridFromPre046Settings"
       type="xygrid"
       originx="0px"
       originy="0px"
       spacingx="0.5cm"
       spacingy="0.5cm"
       color="#0000ff"
       empcolor="#0000ff"
       opacity="0.2"
       empopacity="0.4"
       empspacing="5"
       units="cm"
       visible="true"
       enabled="true"
       snapvisiblegridlinesonly="true" />
    <sodipodi:guide
       orientation="0,1"
       position="127,25.234402"
       id="guide4838" />
    <sodipodi:guide
       orientation="0,1"
       position="159,0.23440237"
       id="guide4844" />
  </sodipodi:namedview>
  <metadata
     id="metadata5438">
    <rdf:RDF>
      <cc:Work
         rdf:about="">
        <dc:format>image/svg+xml</dc:format>
        <dc:type
           rdf:resource="http://purl.org/dc/dcmitype/StillImage" />
      </cc:Work>
    </rdf:RDF>
  </metadata>
  <g
     inkscape:label="Layer 1"
     inkscape:groupmode="layer"
     id="layer1"
     transform="translate(-90.0827,-431.12753)">
    <path
       style="fill:#babdb6;fill-opacity:1;stroke:none"
       d="m 267.73355,445.3241 90.37974,0 c 0.0568,0 0.10269,0.0448 0.10269,0.10042 l 0,176.96451 c 0,0.0556 -0.0458,0.10042 -0.10269,0.10042 l -90.37974,0 c -0.0569,0 -0.10268,-0.0448 -0.10268,-0.10042 l 0,-176.96451 c 0,-0.0556 0.0458,-0.10042 0.10268,-0.10042 z"
       id="rect2825" />
    <path
       style="fill:#babdb6;fill-opacity:1;stroke:none"
       d="m 90.565913,445.3241 88.381847,0 c 0.0556,0 0.10042,0.0448 0.10042,0.10042 l 0,176.96451 c 0,0.0556 -0.0448,0.10042 -0.10042,0.10042 l -88.381847,0 c -0.05563,0 -0.100417,-0.0448 -0.100417,-0.10042 l 0,-176.96451 c 0,-0.0556 0.04479,-0.10042 0.100417,-0.10042 z"
       id="rect2823" />
    <text
       xml:space="preserve"
       style="font-size:40px;font-style:normal;font-weight:normal;fill:#000000;fill-opacity:1;stroke:none;font-family:Bitstream Vera Sans"
       x="262.5827"
       y="640.40002"
       id="text4840"><tspan
         sodipodi:role="line"
         id="tspan4842"
         x="262.5827"
         y="640.40002"
         style="font-size:20px;font-style:italic;font-variant:normal;font-weight:normal;font-stretch:normal;font-family:Times New Roman;-inkscape-font-specification:'Times New Roman,'">L</tspan></text>
    <text
       xml:space="preserve"
       style="font-size:40px;font-style:normal;font-weight:normal;fill:#000000;fill-opacity:1;stroke:none;font-family:Bitstream Vera Sans"
       x="349.67548"
       y="636.02112"
       id="text4840-5"><tspan
         sodipodi:role="line"
         id="tspan4842-1"
         x="349.67548"
         y="636.02112"
         style="font-size:20px;font-style:italic;font-variant:normal;font-weight:normal;font-stretch:normal;font-family:Times New Roman;-inkscape-font-specification:'Times New Roman,'">x</tspan></text>
    <text
       xml:space="preserve"
       style="font-size:40px;font-style:normal;font-weight:normal;fill:#000000;fill-opacity:1;stroke:none;font-family:Bitstream Vera Sans"
       x="173.67548"
       y="640.90002"
       id="text4840-8"><tspan
         sodipodi:role="line"
         x="173.67548"
         y="640.90002"
         style="font-size:20px;font-style:italic;font-variant:normal;font-weight:normal;font-stretch:normal;font-family:Times New Roman;-inkscape-font-specification:'Times New Roman,'"
         id="tspan4896">0</tspan></text>
    <g
       style="font-size:40px;font-style:normal;font-weight:normal;text-align:center;text-anchor:middle;fill:#000000;fill-opacity:1;stroke:none;font-family:Bitstream Vera Sans"
       id="text4840-82">
      <path
         d="m 200.08258,586.85327 1.09375,-11.02539 c 0.0521,-0.55988 0.0781,-0.93749 0.0781,-1.13281 -1e-5,-0.29296 -0.11069,-0.5371 -0.33204,-0.73242 -0.21484,-0.1953 -0.55664,-0.29296 -1.02539,-0.29297 l -0.35156,0 0.0977,-0.36133 5.22461,0 -0.10743,0.36133 c -0.56641,0.007 -0.95703,0.0651 -1.17187,0.17578 -0.20834,0.11069 -0.37436,0.29949 -0.49805,0.56641 -0.0651,0.14324 -0.13347,0.55014 -0.20508,1.2207 l -0.78125,7.90039 5.16602,-7.05078 c 0.55989,-0.76171 0.91145,-1.29231 1.05469,-1.5918 0.0976,-0.20181 0.14647,-0.37759 0.14648,-0.52734 -1e-5,-0.17577 -0.0749,-0.32877 -0.22461,-0.45899 -0.14975,-0.13019 -0.4297,-0.20832 -0.83984,-0.23437 l 0.11719,-0.36133 3.98437,0 -0.0977,0.36133 c -0.31903,0.0261 -0.57293,0.0879 -0.76172,0.18554 -0.35809,0.16929 -0.71616,0.42645 -1.07422,0.77149 -0.35158,0.34506 -0.91147,1.04168 -1.67969,2.08984 l -7.46094,10.13672 -0.35156,0"
         style="font-size:20px;font-style:italic;font-variant:normal;font-stretch:normal;font-family:Times New Roman;-inkscape-font-specification:'Times New Roman,'"
         id="path6046" />
      <path
         d="m 215.48297,590.46655 0,0.36133 c -0.98308,-0.49479 -1.80339,-1.07422 -2.46094,-1.73828 -0.9375,-0.94401 -1.66015,-2.05729 -2.16797,-3.33984 -0.50781,-1.28255 -0.76171,-2.61393 -0.76171,-3.99414 0,-2.01823 0.49804,-3.85742 1.49414,-5.51758 0.99609,-1.66666 2.29491,-2.85806 3.89648,-3.57422 l 0,0.41015 c -0.80079,0.44273 -1.45834,1.04819 -1.97266,1.81641 -0.51432,0.76824 -0.89844,1.74155 -1.15234,2.91992 -0.25391,1.1784 -0.38086,2.40886 -0.38086,3.69141 0,1.39323 0.10742,2.65951 0.32227,3.79883 0.16927,0.89843 0.37434,1.61784 0.61523,2.1582 0.24088,0.54687 0.56315,1.07096 0.9668,1.57227 0.41015,0.50129 0.944,0.97981 1.60156,1.43554"
         style="font-style:normal"
         id="path6048" />
      <path
         d="m 219.41852,577.71265 c 0.319,0.33855 0.55989,0.67709 0.72265,1.01562 0.11719,0.23438 0.30924,0.84962 0.57618,1.8457 l 0.85937,-1.28906 c 0.22786,-0.31249 0.50455,-0.60871 0.83008,-0.88867 0.32551,-0.28645 0.61197,-0.48176 0.85937,-0.58594 0.15625,-0.0651 0.32877,-0.0976 0.51758,-0.0976 0.27994,10e-6 0.5013,0.0749 0.66406,0.22461 0.16927,0.14974 0.2539,0.33204 0.25391,0.54687 -1e-5,0.2474 -0.0488,0.41668 -0.14648,0.50781 -0.1823,0.16277 -0.39064,0.24415 -0.625,0.24414 -0.13673,10e-6 -0.28321,-0.0293 -0.43946,-0.0879 -0.30599,-0.10416 -0.51107,-0.15624 -0.61523,-0.15625 -0.15626,10e-6 -0.3418,0.0912 -0.55664,0.27344 -0.40365,0.33855 -0.88542,0.99285 -1.44531,1.96289 l 0.80078,3.35938 c 0.12369,0.51432 0.22786,0.82357 0.3125,0.92773 0.0846,0.0977 0.16926,0.14649 0.2539,0.14649 0.13672,0 0.29622,-0.0749 0.47852,-0.22461 0.35807,-0.29948 0.66405,-0.69011 0.91797,-1.17188 l 0.34179,0.17578 c -0.41016,0.76823 -0.93099,1.40625 -1.5625,1.91406 -0.35807,0.28646 -0.66081,0.42969 -0.9082,0.42969 -0.36459,0 -0.6543,-0.20508 -0.86914,-0.61523 -0.13672,-0.25391 -0.41992,-1.34766 -0.84961,-3.28125 -1.01563,1.76432 -1.82943,2.90039 -2.4414,3.4082 -0.39714,0.32552 -0.78126,0.48828 -1.15235,0.48828 -0.26041,0 -0.49804,-0.0944 -0.71289,-0.2832 -0.15625,-0.14323 -0.23437,-0.33529 -0.23437,-0.57617 0,-0.21485 0.0716,-0.39388 0.21484,-0.53711 0.14323,-0.14323 0.31901,-0.21484 0.52734,-0.21485 0.20834,10e-6 0.42969,0.10417 0.66407,0.3125 0.16927,0.14974 0.29947,0.22461 0.39062,0.22461 0.0781,0 0.17904,-0.0521 0.30274,-0.15625 0.30598,-0.24739 0.72265,-0.78124 1.25,-1.60156 0.52734,-0.82031 0.87239,-1.41276 1.03515,-1.77734 -0.40365,-1.58203 -0.62175,-2.41862 -0.6543,-2.50977 -0.14974,-0.42317 -0.34505,-0.72265 -0.58593,-0.89844 -0.24089,-0.17577 -0.59571,-0.26366 -1.06446,-0.26367 -0.14974,1e-5 -0.32226,0.007 -0.51757,0.0195 l 0,-0.35156 2.60742,-0.45898"
         style="font-size:20px;font-style:italic;font-variant:normal;font-stretch:normal;font-family:Times New Roman;-inkscape-font-specification:'Times New Roman,'"
         id="path6050" />
      <path
         d="m 225.26813,573.07397 0,-0.41015 c 0.98958,0.48829 1.81315,1.06446 2.4707,1.72851 0.93099,0.95054 1.65039,2.06707 2.1582,3.34961 0.50781,1.27605 0.76172,2.60743 0.76172,3.99414 0,2.01824 -0.49805,3.85743 -1.49414,5.51758 -0.98958,1.66667 -2.28841,2.85807 -3.89648,3.57422 l 0,-0.36133 c 0.80078,-0.44922 1.45833,-1.05794 1.97265,-1.82617 0.52083,-0.76172 0.90495,-1.73177 1.15235,-2.91016 0.2539,-1.18489 0.38085,-2.41861 0.38086,-3.70117 -1e-5,-1.38671 -0.10743,-2.65298 -0.32227,-3.79883 -0.16276,-0.89842 -0.36784,-1.61782 -0.61523,-2.1582 -0.24089,-0.54035 -0.56316,-1.06118 -0.9668,-1.5625 -0.40365,-0.50129 -0.9375,-0.9798 -1.60156,-1.43555"
         style="font-style:normal"
         id="path6052" />
      <path
         d="m 233.45172,577.92749 10.53711,0 0,0.80078 -10.53711,0 0,-0.80078 m 0,3.18359 10.53711,0 0,0.80079 -10.53711,0 0,-0.80079"
         style="font-size:20px;font-style:italic;font-variant:normal;font-stretch:normal;font-family:Times New Roman;-inkscape-font-specification:'Times New Roman,'"
         id="path6054" />
      <path
         d="m 251.92828,573.03491 c 0.83333,2e-5 1.5332,0.34832 2.09961,1.04492 0.57291,0.69663 0.85937,1.79689 0.85938,3.30079 -1e-5,1.28907 -0.2116,2.60417 -0.63477,3.94531 -0.42318,1.34115 -1.01889,2.50326 -1.78711,3.48633 -0.61198,0.77474 -1.25326,1.33463 -1.92383,1.67968 -0.39063,0.19532 -0.8431,0.29297 -1.35742,0.29297 -0.84635,0 -1.55599,-0.34831 -2.1289,-1.04492 -0.56641,-0.69661 -0.84961,-1.80013 -0.84961,-3.31055 0,-1.49088 0.28645,-2.98827 0.85937,-4.49218 0.67057,-1.75781 1.52669,-3.09244 2.56836,-4.00391 0.68359,-0.59895 1.44856,-0.89842 2.29492,-0.89844 m 0.01,0.50781 c -0.37761,2e-5 -0.76173,0.14976 -1.15234,0.44922 -0.38412,0.29298 -0.78451,0.90822 -1.20118,1.84571 -0.41016,0.93751 -0.80404,2.14519 -1.18164,3.62304 -0.48828,1.9336 -0.73242,3.58074 -0.73242,4.94141 0,0.67708 0.14648,1.1849 0.43945,1.52344 0.29297,0.33203 0.64779,0.49804 1.06446,0.49804 0.39713,0 0.73567,-0.1302 1.01562,-0.39062 0.74869,-0.70312 1.38997,-1.9043 1.92383,-3.60352 0.86588,-2.77994 1.29882,-5.03905 1.29883,-6.77734 -10e-6,-0.72265 -0.14649,-1.25324 -0.43945,-1.5918 -0.29298,-0.34504 -0.63803,-0.51756 -1.03516,-0.51758"
         style="font-size:20px;font-style:italic;font-variant:normal;font-stretch:normal;font-family:Times New Roman;-inkscape-font-specification:'Times New Roman,'"
         id="path6056" />
      <path
         d="m 208.35406,615.46655 0,0.36133 c -0.98307,-0.49479 -1.80338,-1.07422 -2.46093,-1.73828 -0.93751,-0.94401 -1.66016,-2.05729 -2.16797,-3.33984 -0.50781,-1.28255 -0.76172,-2.61393 -0.76172,-3.99414 0,-2.01823 0.49805,-3.85742 1.49414,-5.51758 0.99609,-1.66666 2.29492,-2.85806 3.89648,-3.57422 l 0,0.41015 c -0.80078,0.44273 -1.45833,1.04819 -1.97265,1.81641 -0.51433,0.76824 -0.89844,1.74155 -1.15235,2.91992 -0.2539,1.1784 -0.38086,2.40886 -0.38085,3.69141 -1e-5,1.39323 0.10741,2.65951 0.32226,3.79883 0.16927,0.89843 0.37435,1.61784 0.61524,2.1582 0.24088,0.54687 0.56314,1.07096 0.96679,1.57227 0.41015,0.50129 0.94401,0.97981 1.60156,1.43554"
         style="font-size:20px;font-variant:normal;font-stretch:normal;font-family:Times New Roman;-inkscape-font-specification:'Times New Roman,'"
         id="path6058" />
      <path
         d="m 208.94977,602.60522 3.75,0 0,0.36133 c -0.34506,0.0261 -0.57292,0.0879 -0.6836,0.18555 -0.10417,0.0977 -0.15625,0.23764 -0.15625,0.41992 0,0.20183 0.0553,0.44597 0.16602,0.73242 l 1.91406,5.14649 1.92383,-4.18946 -0.50781,-1.31835 c -0.15626,-0.39062 -0.36134,-0.6608 -0.61524,-0.81055 -0.14323,-0.0911 -0.41016,-0.14648 -0.80078,-0.16602 l 0,-0.36133 4.25781,0 0,0.36133 c -0.46875,0.0195 -0.80078,0.10418 -0.99609,0.25391 -0.13022,0.10417 -0.19532,0.27019 -0.19531,0.49805 -10e-6,0.13021 0.026,0.26368 0.0781,0.40039 l 2.03125,5.13672 1.88477,-4.95118 c 0.1302,-0.35155 0.1953,-0.6315 0.19531,-0.83984 -1e-5,-0.12369 -0.0651,-0.23437 -0.19531,-0.33203 -0.12371,-0.0976 -0.37111,-0.15299 -0.74219,-0.16602 l 0,-0.36133 2.82227,0 0,0.36133 c -0.56642,0.0847 -0.98309,0.46876 -1.25,1.15235 l -2.98828,7.70507 -0.40039,0 -2.23633,-5.71289 -2.60742,5.71289 -0.36133,0 -2.8711,-7.51953 c -0.1888,-0.47525 -0.37435,-0.79426 -0.55664,-0.95703 -0.18229,-0.16926 -0.46875,-0.29621 -0.85937,-0.38086 l 0,-0.36133"
         style="font-size:20px;font-variant:normal;font-stretch:normal;font-family:Times New Roman;-inkscape-font-specification:'Times New Roman,'"
         id="path6060" />
      <path
         d="m 225.40485,605.97437 c -0.007,1.32812 0.31575,2.36979 0.96679,3.125 0.65104,0.75521 1.41601,1.13281 2.29492,1.13281 0.58594,0 1.09375,-0.15951 1.52344,-0.47852 0.43619,-0.32552 0.80078,-0.8789 1.09375,-1.66015 l 0.30274,0.19531 c -0.13673,0.89193 -0.53387,1.70573 -1.19141,2.4414 -0.65756,0.72917 -1.48112,1.09375 -2.4707,1.09375 -1.07422,0 -1.99545,-0.41666 -2.76367,-1.25 -0.76172,-0.83984 -1.14258,-1.96614 -1.14258,-3.3789 0,-1.52994 0.39062,-2.72135 1.17187,-3.57422 0.78776,-0.85937 1.77409,-1.28905 2.95899,-1.28906 1.0026,1e-5 1.82616,0.33204 2.4707,0.99609 0.64452,0.65756 0.96679,1.53972 0.9668,2.64649 l -6.18164,0 m 0,-0.56641 4.14062,0 c -0.0326,-0.57291 -0.10092,-0.97656 -0.20508,-1.21094 -0.16276,-0.36457 -0.4069,-0.65103 -0.73242,-0.85937 -0.31901,-0.20833 -0.6543,-0.31249 -1.00586,-0.3125 -0.54037,10e-6 -1.02539,0.21159 -1.45508,0.63476 -0.42318,0.41668 -0.67057,0.99936 -0.74218,1.74805"
         style="font-size:20px;font-variant:normal;font-stretch:normal;font-family:Times New Roman;-inkscape-font-specification:'Times New Roman,'"
         id="path6062" />
      <path
         d="m 235.8443,597.66382 0,11.86523 c 0,0.5599 0.0391,0.93099 0.11719,1.11328 0.0846,0.1823 0.21158,0.32227 0.38086,0.41993 0.16926,0.0911 0.48502,0.13671 0.94726,0.13671 l 0,0.35157 -4.38476,0 0,-0.35157 c 0.41015,0 0.6901,-0.0423 0.83984,-0.12695 0.14974,-0.0846 0.26693,-0.22461 0.35156,-0.41992 0.0846,-0.19531 0.12695,-0.56966 0.12696,-1.12305 l 0,-8.125 c -1e-5,-1.0091 -0.0228,-1.62759 -0.0684,-1.85547 -0.0456,-0.23436 -0.12045,-0.39386 -0.22461,-0.47851 -0.0977,-0.0846 -0.22461,-0.12694 -0.38086,-0.12695 -0.16927,10e-6 -0.38412,0.0521 -0.64453,0.15625 l -0.16602,-0.3418 2.66602,-1.09375 0.43945,0"
         style="font-size:20px;font-variant:normal;font-stretch:normal;font-family:Times New Roman;-inkscape-font-specification:'Times New Roman,'"
         id="path6064" />
      <path
         d="m 241.39117,597.66382 0,11.86523 c 0,0.5599 0.0391,0.93099 0.11719,1.11328 0.0846,0.1823 0.21159,0.32227 0.38086,0.41993 0.16927,0.0911 0.48502,0.13671 0.94727,0.13671 l 0,0.35157 -4.38477,0 0,-0.35157 c 0.41016,0 0.6901,-0.0423 0.83984,-0.12695 0.14974,-0.0846 0.26693,-0.22461 0.35157,-0.41992 0.0846,-0.19531 0.12695,-0.56966 0.12695,-1.12305 l 0,-8.125 c 0,-1.0091 -0.0228,-1.62759 -0.0684,-1.85547 -0.0456,-0.23436 -0.12044,-0.39386 -0.22461,-0.47851 -0.0977,-0.0846 -0.22461,-0.12694 -0.38086,-0.12695 -0.16927,10e-6 -0.38411,0.0521 -0.64453,0.15625 l -0.16601,-0.3418 2.66601,-1.09375 0.43945,0"
         style="font-size:20px;font-variant:normal;font-stretch:normal;font-family:Times New Roman;-inkscape-font-specification:'Times New Roman,'"
         id="path6066" />
      <path
         d="m 243.6861,598.07397 0,-0.41015 c 0.98958,0.48829 1.81314,1.06446 2.4707,1.72851 0.93099,0.95054 1.65039,2.06707 2.1582,3.34961 0.50781,1.27605 0.76172,2.60743 0.76172,3.99414 0,2.01824 -0.49805,3.85743 -1.49414,5.51758 -0.98959,1.66667 -2.28841,2.85807 -3.89648,3.57422 l 0,-0.36133 c 0.80078,-0.44922 1.45833,-1.05794 1.97265,-1.82617 0.52083,-0.76172 0.90495,-1.73177 1.15235,-2.91016 0.2539,-1.18489 0.38085,-2.41861 0.38086,-3.70117 -1e-5,-1.38671 -0.10743,-2.65298 -0.32227,-3.79883 -0.16276,-0.89842 -0.36784,-1.61782 -0.61523,-2.1582 -0.24089,-0.54035 -0.56316,-1.06118 -0.9668,-1.5625 -0.40365,-0.50129 -0.9375,-0.9798 -1.60156,-1.43555"
         style="font-size:20px;font-variant:normal;font-stretch:normal;font-family:Times New Roman;-inkscape-font-specification:'Times New Roman,'"
         id="path6068" />
    </g>
    <g
       style="font-size:40px;font-style:normal;font-weight:normal;text-align:center;text-anchor:middle;fill:#000000;fill-opacity:1;stroke:none;font-family:Bitstream Vera Sans"
       id="text4840-82-7">
      <path
         d="m 105.87578,586.50006 1.09375,-11.02539 c 0.0521,-0.55988 0.0781,-0.93749 0.0781,-1.13281 0,-0.29296 -0.11068,-0.5371 -0.33203,-0.73242 -0.21485,-0.1953 -0.55664,-0.29296 -1.02539,-0.29297 l -0.35156,0 0.0977,-0.36133 5.2246,0 -0.10742,0.36133 c -0.56641,0.007 -0.95704,0.0651 -1.17187,0.17578 -0.20834,0.11069 -0.37436,0.29949 -0.49805,0.5664 -0.0651,0.14325 -0.13347,0.55015 -0.20508,1.22071 l -0.78125,7.90039 5.16602,-7.05078 c 0.55988,-0.76171 0.91145,-1.29231 1.05469,-1.5918 0.0976,-0.20181 0.14647,-0.37759 0.14648,-0.52734 -1e-5,-0.17577 -0.0749,-0.32877 -0.22461,-0.45899 -0.14975,-0.13019 -0.4297,-0.20832 -0.83984,-0.23437 l 0.11718,-0.36133 3.98438,0 -0.0977,0.36133 c -0.31902,0.0261 -0.57293,0.0879 -0.76172,0.18554 -0.35808,0.16929 -0.71615,0.42645 -1.07421,0.77149 -0.35158,0.34506 -0.91147,1.04168 -1.67969,2.08984 l -7.46094,10.13672 -0.35156,0"
         style="font-size:20px;font-style:italic;font-variant:normal;font-stretch:normal;font-family:Times New Roman;-inkscape-font-specification:'Times New Roman,'"
         id="path5990" />
      <path
         d="m 121.27617,590.11334 0,0.36133 c -0.98308,-0.4948 -1.80339,-1.07422 -2.46094,-1.73828 -0.9375,-0.94401 -1.66016,-2.05729 -2.16797,-3.33984 -0.50781,-1.28255 -0.76172,-2.61393 -0.76172,-3.99415 0,-2.01822 0.49805,-3.85741 1.49414,-5.51757 0.99609,-1.66666 2.29492,-2.85806 3.89649,-3.57422 l 0,0.41015 c -0.80079,0.44273 -1.45834,1.04819 -1.97266,1.81641 -0.51432,0.76824 -0.89844,1.74155 -1.15234,2.91992 -0.25391,1.1784 -0.38086,2.40886 -0.38086,3.69141 0,1.39323 0.10742,2.65951 0.32227,3.79883 0.16926,0.89843 0.37434,1.61783 0.61523,2.1582 0.24088,0.54687 0.56315,1.07096 0.9668,1.57227 0.41015,0.50129 0.944,0.97981 1.60156,1.43554"
         style="font-style:normal"
         id="path5992" />
      <path
         d="m 125.21172,577.35944 c 0.319,0.33855 0.55989,0.67709 0.72265,1.01562 0.11719,0.23438 0.30924,0.84962 0.57617,1.8457 l 0.85938,-1.28906 c 0.22786,-0.31249 0.50455,-0.60871 0.83008,-0.88867 0.32551,-0.28645 0.61197,-0.48176 0.85937,-0.58594 0.15624,-0.0651 0.32877,-0.0977 0.51758,-0.0977 0.27994,0 0.50129,0.0749 0.66406,0.22461 0.16926,0.14974 0.2539,0.33203 0.25391,0.54687 -1e-5,0.2474 -0.0488,0.41667 -0.14649,0.50781 -0.1823,0.16277 -0.39063,0.24415 -0.625,0.24414 -0.13672,10e-6 -0.28321,-0.0293 -0.43945,-0.0879 -0.306,-0.10416 -0.51107,-0.15624 -0.61523,-0.15625 -0.15626,10e-6 -0.34181,0.0912 -0.55664,0.27344 -0.40366,0.33855 -0.88543,0.99285 -1.44532,1.96289 l 0.80079,3.35938 c 0.12369,0.51432 0.22785,0.82356 0.3125,0.92773 0.0846,0.0977 0.16926,0.14649 0.2539,0.14648 0.13671,1e-5 0.29622,-0.0749 0.47852,-0.2246 0.35806,-0.29948 0.66405,-0.69011 0.91797,-1.17188 l 0.34179,0.17578 c -0.41016,0.76823 -0.93099,1.40625 -1.5625,1.91406 -0.35808,0.28646 -0.66081,0.42969 -0.9082,0.42969 -0.36459,0 -0.6543,-0.20508 -0.86914,-0.61523 -0.13672,-0.25391 -0.41993,-1.34766 -0.84961,-3.28125 -1.01563,1.76432 -1.82943,2.90039 -2.44141,3.4082 -0.39713,0.32552 -0.78125,0.48828 -1.15234,0.48828 -0.26042,0 -0.49805,-0.0944 -0.71289,-0.2832 -0.15625,-0.14323 -0.23438,-0.33529 -0.23438,-0.57617 0,-0.21485 0.0716,-0.39388 0.21485,-0.53711 0.14323,-0.14323 0.31901,-0.21485 0.52734,-0.21485 0.20833,0 0.42969,0.10417 0.66406,0.3125 0.16927,0.14974 0.29948,0.22461 0.39063,0.22461 0.0781,0 0.17903,-0.0521 0.30273,-0.15625 0.30599,-0.24739 0.72266,-0.78125 1.25,-1.60156 0.52734,-0.82031 0.8724,-1.41276 1.03516,-1.77734 -0.40365,-1.58203 -0.62175,-2.41862 -0.6543,-2.50977 -0.14974,-0.42317 -0.34505,-0.72265 -0.58593,-0.89844 -0.24089,-0.17577 -0.59571,-0.26366 -1.06446,-0.26367 -0.14974,10e-6 -0.32226,0.007 -0.51758,0.0195 l 0,-0.35156 2.60743,-0.45898"
         style="font-size:20px;font-style:italic;font-variant:normal;font-stretch:normal;font-family:Times New Roman;-inkscape-font-specification:'Times New Roman,'"
         id="path5994" />
      <path
         d="m 131.06133,572.72076 0,-0.41015 c 0.98958,0.48829 1.81314,1.06446 2.4707,1.72851 0.93098,0.95054 1.65038,2.06707 2.1582,3.34961 0.50781,1.27605 0.76171,2.60743 0.76172,3.99414 -1e-5,2.01824 -0.49805,3.85743 -1.49414,5.51758 -0.98959,1.66667 -2.28841,2.85807 -3.89648,3.57422 l 0,-0.36133 c 0.80078,-0.44922 1.45833,-1.05794 1.97265,-1.82617 0.52083,-0.76172 0.90495,-1.73177 1.15235,-2.91016 0.2539,-1.18489 0.38085,-2.41861 0.38085,-3.70117 0,-1.38671 -0.10742,-2.65299 -0.32226,-3.79883 -0.16277,-0.89842 -0.36784,-1.61782 -0.61524,-2.1582 -0.24088,-0.54035 -0.56315,-1.06119 -0.96679,-1.5625 -0.40365,-0.50129 -0.9375,-0.9798 -1.60156,-1.43555"
         style="font-style:normal"
         id="path5996" />
      <path
         d="m 139.24492,577.57428 10.53711,0 0,0.80078 -10.53711,0 0,-0.80078 m 0,3.18359 10.53711,0 0,0.80078 -10.53711,0 0,-0.80078"
         style="font-size:20px;font-style:italic;font-variant:normal;font-stretch:normal;font-family:Times New Roman;-inkscape-font-specification:'Times New Roman,'"
         id="path5998" />
      <path
         d="m 157.18437,579.68365 c 0.4427,-1.01561 0.92773,-1.71874 1.45508,-2.10937 0.52734,-0.39713 1.24674,-0.59569 2.1582,-0.5957 1.04817,1e-5 1.93359,0.37761 2.65625,1.13281 0.72265,0.75521 1.08397,1.73503 1.08399,2.93945 -2e-5,1.19141 -0.35158,2.17448 -1.05469,2.94922 -0.70314,0.76823 -1.48764,1.15235 -2.35352,1.15234 -0.64454,1e-5 -1.24349,-0.23762 -1.79687,-0.71289 -0.36459,-0.31249 -0.86264,-1.00585 -1.49414,-2.08007 -0.41667,0.80729 -0.8724,1.38997 -1.36719,1.74804 -0.4948,0.35157 -1.09375,0.52735 -1.79687,0.52735 -0.93751,0 -1.73178,-0.33529 -2.38282,-1.00586 -0.64453,-0.67057 -0.96679,-1.53646 -0.96679,-2.59766 0,-1.07421 0.29948,-1.9401 0.89843,-2.59766 0.59896,-0.65754 1.29883,-0.98631 2.09961,-0.98632 0.5599,1e-5 1.05469,0.14649 1.48438,0.43945 0.42968,0.28647 0.88866,0.88542 1.37695,1.79687 m 0.9375,1.98243 c 0.48828,1.01563 0.97005,1.69922 1.44531,2.05078 0.47526,0.34505 1.00911,0.51758 1.60157,0.51758 0.80077,0 1.46808,-0.28646 2.00195,-0.85938 0.54035,-0.57942 0.81053,-1.35416 0.81055,-2.32422 -2e-5,-0.95702 -0.28322,-1.74804 -0.84961,-2.37304 -0.56642,-0.625 -1.20119,-0.9375 -1.9043,-0.9375 -0.44923,0 -0.84311,0.11394 -1.18164,0.34179 -0.33204,0.22787 -0.63477,0.59246 -0.9082,1.09375 -0.15626,0.29298 -0.4948,1.12306 -1.01563,2.49024 m -1.2207,-1.23047 c -0.31902,-0.71614 -0.6836,-1.24348 -1.09375,-1.58203 -0.41016,-0.33854 -0.91472,-0.50781 -1.51367,-0.50782 -0.69011,10e-6 -1.26954,0.24415 -1.73828,0.73243 -0.46225,0.48177 -0.69336,1.12956 -0.69336,1.94336 0,0.86589 0.22786,1.55924 0.68359,2.08007 0.46224,0.51433 0.98307,0.77149 1.5625,0.77149 0.61849,0 1.16536,-0.27669 1.64063,-0.83008 0.30598,-0.36458 0.69009,-1.23372 1.15234,-2.60742"
         style="font-size:20px;font-style:italic;font-variant:normal;font-stretch:normal;font-family:Times New Roman;-inkscape-font-specification:'Times New Roman,'"
         id="path6000" />
      <path
         d="m 106.82304,615.11334 0,0.36133 c -0.98307,-0.4948 -1.80339,-1.07422 -2.46093,-1.73828 -0.93751,-0.94401 -1.66016,-2.05729 -2.16797,-3.33984 -0.50782,-1.28255 -0.76172,-2.61393 -0.76172,-3.99415 0,-2.01822 0.49804,-3.85741 1.49414,-5.51757 0.99609,-1.66666 2.29492,-2.85806 3.89648,-3.57422 l 0,0.41015 c -0.80078,0.44273 -1.45833,1.04819 -1.97265,1.81641 -0.51433,0.76824 -0.89844,1.74155 -1.15235,2.91992 -0.25391,1.1784 -0.38086,2.40886 -0.38086,3.69141 0,1.39323 0.10742,2.65951 0.32227,3.79883 0.16927,0.89843 0.37435,1.61783 0.61523,2.1582 0.24089,0.54687 0.56315,1.07096 0.9668,1.57227 0.41015,0.50129 0.94401,0.97981 1.60156,1.43554"
         style="font-size:20px;font-variant:normal;font-stretch:normal;font-family:Times New Roman;-inkscape-font-specification:'Times New Roman,'"
         id="path6002" />
      <path
         d="m 110.36797,603.79498 c 0.86588,-1.20442 1.80012,-1.80663 2.80273,-1.80664 0.91796,10e-6 1.71874,0.39389 2.40234,1.18164 0.68359,0.78126 1.02539,1.85222 1.02539,3.21289 0,1.58855 -0.52735,2.86784 -1.58203,3.83789 -0.90495,0.83334 -1.91407,1.25 -3.02734,1.25 -0.52084,0 -1.05144,-0.0944 -1.5918,-0.2832 -0.53385,-0.1888 -1.08073,-0.472 -1.64062,-0.84961 l 0,-9.26758 c 0,-1.01561 -0.026,-1.64061 -0.0781,-1.875 -0.0456,-0.23436 -0.12044,-0.39386 -0.22461,-0.47851 -0.10416,-0.0846 -0.23437,-0.12694 -0.39062,-0.12696 -0.18229,2e-5 -0.41016,0.0521 -0.6836,0.15625 l -0.13671,-0.34179 2.68554,-1.09375 0.43946,0 0,6.48437 m 0,0.625 0,5.35157 c 0.33202,0.32552 0.67382,0.57291 1.02539,0.74218 0.35806,0.16276 0.72265,0.24414 1.09375,0.24414 0.59244,0 1.14257,-0.32552 1.65039,-0.97656 0.51431,-0.65104 0.77147,-1.5983 0.77148,-2.8418 -1e-5,-1.14582 -0.25717,-2.02473 -0.77148,-2.63671 -0.50782,-0.61849 -1.08725,-0.92773 -1.73828,-0.92774 -0.34506,1e-5 -0.69011,0.0879 -1.03516,0.26367 -0.26042,0.13022 -0.59245,0.39064 -0.99609,0.78125"
         style="font-size:20px;font-variant:normal;font-stretch:normal;font-family:Times New Roman;-inkscape-font-specification:'Times New Roman,'"
         id="path6004" />
      <path
         d="m 122.98515,609.90826 c -0.91797,0.70964 -1.49414,1.1198 -1.72851,1.23047 -0.35157,0.16276 -0.72592,0.24414 -1.12305,0.24414 -0.61849,0 -1.12956,-0.21158 -1.5332,-0.63476 -0.39714,-0.42318 -0.59571,-0.97982 -0.59571,-1.66992 0,-0.4362 0.0977,-0.8138 0.29297,-1.13282 0.26693,-0.4427 0.72917,-0.85937 1.38672,-1.25 0.66406,-0.39062 1.76432,-0.86588 3.30078,-1.42578 l 0,-0.35156 c 0,-0.89192 -0.14323,-1.5039 -0.42968,-1.83594 -0.27996,-0.33202 -0.69011,-0.49804 -1.23047,-0.49804 -0.41016,0 -0.73568,0.11068 -0.97657,0.33203 -0.24739,0.22136 -0.37109,0.47526 -0.37109,0.76172 l 0.0195,0.5664 c 0,0.29949 -0.0781,0.53061 -0.23437,0.69336 -0.14974,0.16277 -0.34831,0.24415 -0.59571,0.24414 -0.24088,10e-6 -0.43945,-0.0846 -0.5957,-0.2539 -0.14974,-0.16927 -0.22461,-0.40039 -0.22461,-0.69336 0,-0.55989 0.28646,-1.07421 0.85938,-1.54297 0.57291,-0.46874 1.37695,-0.70312 2.41211,-0.70313 0.79426,10e-6 1.4453,0.13347 1.95312,0.40039 0.38411,0.20183 0.66731,0.51759 0.84961,0.94727 0.11718,0.27995 0.17577,0.85287 0.17578,1.71875 l 0,3.03711 c -1e-5,0.85286 0.0163,1.37695 0.0488,1.57226 0.0325,0.18881 0.0846,0.31576 0.15625,0.38086 0.0781,0.0651 0.16601,0.0977 0.26367,0.0977 0.10416,0 0.19531,-0.0228 0.27344,-0.0684 0.13671,-0.0846 0.40038,-0.32226 0.79101,-0.71289 l 0,0.54687 c -0.72917,0.97657 -1.42578,1.46485 -2.08984,1.46485 -0.31902,0 -0.57292,-0.11068 -0.76172,-0.33203 -0.18881,-0.22136 -0.28646,-0.59896 -0.29297,-1.13282 m 0,-0.63476 0,-3.4082 c -0.98307,0.39063 -1.61784,0.66732 -1.90429,0.83007 -0.51433,0.28647 -0.88217,0.58594 -1.10352,0.89844 -0.22136,0.3125 -0.33203,0.6543 -0.33203,1.02539 0,0.46875 0.13997,0.85938 0.41992,1.17188 0.27995,0.30599 0.60221,0.45898 0.9668,0.45898 0.49479,0 1.14583,-0.32552 1.95312,-0.97656"
         style="font-size:20px;font-variant:normal;font-stretch:normal;font-family:Times New Roman;-inkscape-font-specification:'Times New Roman,'"
         id="path6006" />
      <path
         d="m 129.40117,601.98834 0,2.01172 c 0.74869,-1.34114 1.51692,-2.01171 2.30469,-2.01172 0.35806,10e-6 0.65429,0.11069 0.88867,0.33203 0.23437,0.21486 0.35155,0.46551 0.35156,0.75196 -1e-5,0.25391 -0.0846,0.46875 -0.25391,0.64453 -0.16927,0.17579 -0.3711,0.26368 -0.60546,0.26367 -0.22787,10e-6 -0.48504,-0.11067 -0.77149,-0.33203 -0.27995,-0.22786 -0.48828,-0.34179 -0.625,-0.3418 -0.11719,10e-6 -0.24414,0.0651 -0.38086,0.19531 -0.29297,0.26694 -0.5957,0.70639 -0.9082,1.31836 l 0,4.28711 c 0,0.4948 0.0618,0.86914 0.18555,1.12305 0.0846,0.17578 0.23437,0.32227 0.44921,0.43945 0.21484,0.11719 0.52409,0.17578 0.92774,0.17578 l 0,0.35157 -4.58008,0 0,-0.35157 c 0.45573,0 0.79427,-0.0716 1.01563,-0.21484 0.16275,-0.10417 0.27669,-0.27018 0.34179,-0.49805 0.0326,-0.11067 0.0488,-0.42643 0.0488,-0.94726 l 0,-3.4668 c 0,-1.04166 -0.0228,-1.66015 -0.0684,-1.85547 -0.0391,-0.20181 -0.11719,-0.3483 -0.23437,-0.43945 -0.11068,-0.0911 -0.25066,-0.13671 -0.41993,-0.13672 -0.20182,1e-5 -0.42968,0.0488 -0.68359,0.14648 l -0.0977,-0.35156 2.70508,-1.09375 0.41016,0"
         style="font-size:20px;font-variant:normal;font-stretch:normal;font-family:Times New Roman;-inkscape-font-specification:'Times New Roman,'"
         id="path6008" />
      <path
         d="m 136.08086,601.98834 0,2.01172 c 0.74869,-1.34114 1.51692,-2.01171 2.30468,-2.01172 0.35807,10e-6 0.65429,0.11069 0.88868,0.33203 0.23436,0.21486 0.35155,0.46551 0.35156,0.75196 -1e-5,0.25391 -0.0846,0.46875 -0.25391,0.64453 -0.16928,0.17579 -0.3711,0.26368 -0.60547,0.26367 -0.22787,10e-6 -0.48503,-0.11067 -0.77148,-0.33203 -0.27995,-0.22786 -0.48829,-0.34179 -0.625,-0.3418 -0.11719,10e-6 -0.24415,0.0651 -0.38086,0.19531 -0.29297,0.26694 -0.59571,0.70639 -0.9082,1.31836 l 0,4.28711 c -1e-5,0.4948 0.0618,0.86914 0.18554,1.12305 0.0846,0.17578 0.23437,0.32227 0.44922,0.43945 0.21484,0.11719 0.52409,0.17578 0.92774,0.17578 l 0,0.35157 -4.58008,0 0,-0.35157 c 0.45573,0 0.79427,-0.0716 1.01562,-0.21484 0.16276,-0.10417 0.27669,-0.27018 0.3418,-0.49805 0.0325,-0.11067 0.0488,-0.42643 0.0488,-0.94726 l 0,-3.4668 c 0,-1.04166 -0.0228,-1.66015 -0.0684,-1.85547 -0.0391,-0.20181 -0.11719,-0.3483 -0.23438,-0.43945 -0.11067,-0.0911 -0.25065,-0.13671 -0.41992,-0.13672 -0.20182,1e-5 -0.42969,0.0488 -0.68359,0.14648 l -0.0977,-0.35156 2.70508,-1.09375 0.41016,0"
         style="font-size:20px;font-variant:normal;font-stretch:normal;font-family:Times New Roman;-inkscape-font-specification:'Times New Roman,'"
         id="path6010" />
      <path
         d="m 142.41875,597.31061 c 0.27343,10e-6 0.50455,0.0977 0.69336,0.29297 0.19531,0.18881 0.29296,0.41993 0.29297,0.69336 -1e-5,0.27345 -0.0977,0.50782 -0.29297,0.70312 -0.18881,0.19533 -0.41993,0.29298 -0.69336,0.29297 -0.27344,10e-6 -0.50782,-0.0976 -0.70313,-0.29297 -0.19531,-0.1953 -0.29297,-0.42967 -0.29297,-0.70312 0,-0.27343 0.0944,-0.50455 0.28321,-0.69336 0.19531,-0.1953 0.43294,-0.29296 0.71289,-0.29297 m 0.81054,4.67773 0,7.1875 c 0,0.5599 0.0391,0.93425 0.11719,1.12305 0.0846,0.18229 0.20508,0.31901 0.36133,0.41016 0.16276,0.0911 0.45572,0.13671 0.87891,0.13671 l 0,0.35157 -4.34571,0 0,-0.35157 c 0.4362,0 0.72917,-0.0423 0.87891,-0.12695 0.14974,-0.0846 0.26692,-0.22461 0.35156,-0.41992 0.0911,-0.19531 0.13672,-0.56966 0.13672,-1.12305 l 0,-3.44726 c 0,-0.97005 -0.0293,-1.5983 -0.0879,-1.88477 -0.0456,-0.20832 -0.11719,-0.35155 -0.21484,-0.42969 -0.0977,-0.0846 -0.23113,-0.12694 -0.40039,-0.12695 -0.1823,1e-5 -0.40365,0.0488 -0.66407,0.14648 l -0.13672,-0.35156 2.69532,-1.09375 0.42968,0"
         style="font-size:20px;font-variant:normal;font-stretch:normal;font-family:Times New Roman;-inkscape-font-specification:'Times New Roman,'"
         id="path6012" />
      <path
         d="m 147.19414,605.62115 c -0.007,1.32813 0.31575,2.3698 0.96679,3.125 0.65104,0.75521 1.41602,1.13282 2.29493,1.13282 0.58593,0 1.09374,-0.15951 1.52343,-0.47852 0.43619,-0.32552 0.80078,-0.8789 1.09375,-1.66015 l 0.30274,0.19531 c -0.13673,0.89193 -0.53386,1.70573 -1.19141,2.4414 -0.65756,0.72917 -1.48112,1.09375 -2.4707,1.09375 -1.07422,0 -1.99545,-0.41666 -2.76367,-1.25 -0.76172,-0.83984 -1.14258,-1.96614 -1.14258,-3.3789 0,-1.52994 0.39062,-2.72135 1.17187,-3.57422 0.78776,-0.85937 1.77409,-1.28905 2.95899,-1.28906 1.0026,1e-5 1.82616,0.33204 2.4707,0.99609 0.64452,0.65756 0.96679,1.53972 0.9668,2.64648 l -6.18164,0 m 0,-0.5664 4.14062,0 c -0.0326,-0.57291 -0.10092,-0.97656 -0.20508,-1.21094 -0.16276,-0.36457 -0.4069,-0.65103 -0.73242,-0.85937 -0.31901,-0.20833 -0.6543,-0.3125 -1.00586,-0.3125 -0.54037,0 -1.02539,0.21159 -1.45507,0.63476 -0.42318,0.41668 -0.67058,0.99936 -0.74219,1.74805"
         style="font-size:20px;font-variant:normal;font-stretch:normal;font-family:Times New Roman;-inkscape-font-specification:'Times New Roman,'"
         id="path6014" />
      <path
         d="m 157.17461,601.98834 0,2.01172 c 0.74869,-1.34114 1.51692,-2.01171 2.30468,-2.01172 0.35807,10e-6 0.65429,0.11069 0.88868,0.33203 0.23436,0.21486 0.35155,0.46551 0.35156,0.75196 -1e-5,0.25391 -0.0846,0.46875 -0.25391,0.64453 -0.16928,0.17579 -0.3711,0.26368 -0.60547,0.26367 -0.22787,10e-6 -0.48503,-0.11067 -0.77148,-0.33203 -0.27995,-0.22786 -0.48829,-0.34179 -0.625,-0.3418 -0.11719,10e-6 -0.24415,0.0651 -0.38086,0.19531 -0.29297,0.26694 -0.59571,0.70639 -0.9082,1.31836 l 0,4.28711 c -1e-5,0.4948 0.0618,0.86914 0.18554,1.12305 0.0846,0.17578 0.23437,0.32227 0.44922,0.43945 0.21484,0.11719 0.52409,0.17578 0.92774,0.17578 l 0,0.35157 -4.58008,0 0,-0.35157 c 0.45573,0 0.79427,-0.0716 1.01562,-0.21484 0.16276,-0.10417 0.27669,-0.27018 0.3418,-0.49805 0.0325,-0.11067 0.0488,-0.42643 0.0488,-0.94726 l 0,-3.4668 c 0,-1.04166 -0.0228,-1.66015 -0.0684,-1.85547 -0.0391,-0.20181 -0.11719,-0.3483 -0.23438,-0.43945 -0.11067,-0.0911 -0.25065,-0.13671 -0.41992,-0.13672 -0.20182,1e-5 -0.42969,0.0488 -0.68359,0.14648 l -0.0977,-0.35156 2.70508,-1.09375 0.41016,0"
         style="font-size:20px;font-variant:normal;font-stretch:normal;font-family:Times New Roman;-inkscape-font-specification:'Times New Roman,'"
         id="path6016" />
      <path
         d="m 161.06133,597.72076 0,-0.41015 c 0.98958,0.48829 1.81314,1.06446 2.4707,1.72851 0.93098,0.95054 1.65038,2.06707 2.1582,3.34961 0.50781,1.27605 0.76171,2.60743 0.76172,3.99414 -1e-5,2.01824 -0.49805,3.85743 -1.49414,5.51758 -0.98959,1.66667 -2.28841,2.85807 -3.89648,3.57422 l 0,-0.36133 c 0.80078,-0.44922 1.45833,-1.05794 1.97265,-1.82617 0.52083,-0.76172 0.90495,-1.73177 1.15235,-2.91016 0.2539,-1.18489 0.38085,-2.41861 0.38085,-3.70117 0,-1.38671 -0.10742,-2.65299 -0.32226,-3.79883 -0.16277,-0.89842 -0.36784,-1.61782 -0.61524,-2.1582 -0.24088,-0.54035 -0.56315,-1.06119 -0.96679,-1.5625 -0.40365,-0.50129 -0.9375,-0.9798 -1.60156,-1.43555"
         style="font-size:20px;font-variant:normal;font-stretch:normal;font-family:Times New Roman;-inkscape-font-specification:'Times New Roman,'"
         id="path6018" />
    </g>
    <path
       style="fill:none;stroke:#000000;stroke-width:2;stroke-linecap:butt;stroke-linejoin:miter;stroke-miterlimit:4;stroke-opacity:1;stroke-dasharray:none;marker-end:url(#Arrow1Mend)"
       d="m 92.5,198 0,-183"
       id="path4947"
       transform="translate(86.0827,424.9)" />
    <text
       xml:space="preserve"
       style="font-size:40px;font-style:normal;font-weight:normal;fill:#000000;fill-opacity:1;stroke:none;font-family:Bitstream Vera Sans"
       x="162.09637"
       y="446.36972"
       id="text4840-82-6"><tspan
         sodipodi:role="line"
         id="tspan4842-0-75"
         x="162.09637"
         y="446.36972"
         style="font-size:20px;font-style:italic;font-variant:normal;font-weight:normal;font-stretch:normal;font-family:Times New Roman;-inkscape-font-specification:'Times New Roman,'">E</tspan></text>
    <g
       style="font-size:40px;font-style:normal;font-weight:normal;text-align:center;text-anchor:middle;fill:#000000;fill-opacity:1;stroke:none;font-family:Bitstream Vera Sans"
       id="text4840-82-7-9">
      <path
         d="m 287.29422,586.79077 1.09375,-11.02539 c 0.0521,-0.55988 0.0781,-0.93749 0.0781,-1.13281 0,-0.29296 -0.11068,-0.5371 -0.33203,-0.73242 -0.21484,-0.1953 -0.55664,-0.29296 -1.02539,-0.29297 l -0.35156,0 0.0977,-0.36133 5.22461,0 -0.10743,0.36133 c -0.56641,0.007 -0.95703,0.0651 -1.17187,0.17578 -0.20834,0.11069 -0.37436,0.29949 -0.49805,0.56641 -0.0651,0.14324 -0.13347,0.55014 -0.20508,1.2207 l -0.78125,7.90039 5.16602,-7.05078 c 0.55989,-0.76171 0.91145,-1.29231 1.05469,-1.5918 0.0976,-0.20181 0.14647,-0.37759 0.14648,-0.52734 -10e-6,-0.17577 -0.0749,-0.32877 -0.22461,-0.45899 -0.14975,-0.13019 -0.4297,-0.20832 -0.83984,-0.23437 l 0.11719,-0.36133 3.98437,0 -0.0977,0.36133 c -0.31902,0.0261 -0.57293,0.0879 -0.76171,0.18554 -0.35809,0.16929 -0.71616,0.42645 -1.07422,0.77149 -0.35158,0.34506 -0.91147,1.04168 -1.67969,2.08984 l -7.46094,10.13672 -0.35156,0"
         style="font-size:20px;font-style:italic;font-variant:normal;font-stretch:normal;font-family:Times New Roman;-inkscape-font-specification:'Times New Roman,'"
         id="path6071" />
      <path
         d="m 302.69461,590.40405 0,0.36133 c -0.98308,-0.49479 -1.80339,-1.07422 -2.46094,-1.73828 -0.9375,-0.94401 -1.66016,-2.05729 -2.16797,-3.33984 -0.50781,-1.28255 -0.76172,-2.61393 -0.76171,-3.99414 -10e-6,-2.01823 0.49804,-3.85742 1.49414,-5.51758 0.99609,-1.66666 2.29491,-2.85806 3.89648,-3.57422 l 0,0.41015 c -0.80079,0.44273 -1.45834,1.04819 -1.97266,1.81641 -0.51432,0.76824 -0.89844,1.74155 -1.15234,2.91992 -0.25391,1.1784 -0.38086,2.40886 -0.38086,3.69141 0,1.39323 0.10742,2.65951 0.32227,3.79883 0.16926,0.89843 0.37434,1.61784 0.61523,2.1582 0.24088,0.54687 0.56315,1.07096 0.9668,1.57227 0.41015,0.50129 0.944,0.97981 1.60156,1.43554"
         style="font-style:normal"
         id="path6073" />
      <path
         d="m 306.63016,577.65015 c 0.319,0.33855 0.55989,0.67709 0.72265,1.01562 0.11719,0.23438 0.30924,0.84962 0.57618,1.8457 l 0.85937,-1.28906 c 0.22786,-0.31249 0.50455,-0.60871 0.83008,-0.88867 0.32551,-0.28645 0.61197,-0.48176 0.85937,-0.58594 0.15625,-0.0651 0.32877,-0.0976 0.51758,-0.0976 0.27994,10e-6 0.5013,0.0749 0.66406,0.22461 0.16927,0.14974 0.2539,0.33204 0.25391,0.54687 -1e-5,0.2474 -0.0488,0.41668 -0.14648,0.50781 -0.1823,0.16277 -0.39064,0.24415 -0.625,0.24414 -0.13673,10e-6 -0.28321,-0.0293 -0.43946,-0.0879 -0.30599,-0.10416 -0.51107,-0.15624 -0.61523,-0.15625 -0.15626,10e-6 -0.3418,0.0912 -0.55664,0.27344 -0.40365,0.33855 -0.88542,0.99285 -1.44531,1.96289 l 0.80078,3.35938 c 0.12369,0.51432 0.22786,0.82357 0.3125,0.92773 0.0846,0.0977 0.16926,0.14649 0.2539,0.14649 0.13672,0 0.29622,-0.0749 0.47852,-0.22461 0.35806,-0.29948 0.66405,-0.69011 0.91797,-1.17188 l 0.34179,0.17578 c -0.41016,0.76823 -0.93099,1.40625 -1.5625,1.91406 -0.35807,0.28646 -0.66081,0.42969 -0.9082,0.42969 -0.36459,0 -0.6543,-0.20508 -0.86914,-0.61523 -0.13672,-0.25391 -0.41993,-1.34766 -0.84961,-3.28125 -1.01563,1.76432 -1.82943,2.90039 -2.44141,3.4082 -0.39713,0.32552 -0.78125,0.48828 -1.15234,0.48828 -0.26042,0 -0.49805,-0.0944 -0.71289,-0.2832 -0.15625,-0.14323 -0.23437,-0.33529 -0.23437,-0.57617 0,-0.21485 0.0716,-0.39388 0.21484,-0.53711 0.14323,-0.14323 0.31901,-0.21484 0.52734,-0.21485 0.20834,10e-6 0.42969,0.10417 0.66407,0.3125 0.16927,0.14974 0.29947,0.22461 0.39062,0.22461 0.0781,0 0.17904,-0.0521 0.30273,-0.15625 0.30599,-0.24739 0.72266,-0.78124 1.25,-1.60156 0.52735,-0.82031 0.8724,-1.41276 1.03516,-1.77734 -0.40365,-1.58203 -0.62175,-2.41862 -0.6543,-2.50977 -0.14974,-0.42317 -0.34505,-0.72265 -0.58593,-0.89844 -0.24089,-0.17577 -0.59571,-0.26366 -1.06446,-0.26367 -0.14974,1e-5 -0.32226,0.007 -0.51757,0.0195 l 0,-0.35156 2.60742,-0.45898"
         style="font-size:20px;font-style:italic;font-variant:normal;font-stretch:normal;font-family:Times New Roman;-inkscape-font-specification:'Times New Roman,'"
         id="path6075" />
      <path
         d="m 312.47977,573.01147 0,-0.41015 c 0.98958,0.48829 1.81315,1.06446 2.4707,1.72851 0.93099,0.95054 1.65039,2.06707 2.1582,3.34961 0.50781,1.27605 0.76172,2.60743 0.76172,3.99414 0,2.01824 -0.49805,3.85743 -1.49414,5.51758 -0.98959,1.66667 -2.28841,2.85807 -3.89648,3.57422 l 0,-0.36133 c 0.80078,-0.44922 1.45833,-1.05794 1.97265,-1.82617 0.52083,-0.76172 0.90495,-1.73177 1.15235,-2.91016 0.2539,-1.18489 0.38085,-2.41861 0.38086,-3.70117 -1e-5,-1.38671 -0.10743,-2.65298 -0.32227,-3.79883 -0.16276,-0.89842 -0.36784,-1.61782 -0.61523,-2.1582 -0.24089,-0.54035 -0.56316,-1.06118 -0.9668,-1.5625 -0.40365,-0.50129 -0.9375,-0.9798 -1.60156,-1.43555"
         style="font-style:normal"
         id="path6077" />
      <path
         d="m 320.66336,577.86499 10.53711,0 0,0.80078 -10.53711,0 0,-0.80078 m 0,3.18359 10.53711,0 0,0.80079 -10.53711,0 0,-0.80079"
         style="font-size:20px;font-style:italic;font-variant:normal;font-stretch:normal;font-family:Times New Roman;-inkscape-font-specification:'Times New Roman,'"
         id="path6079" />
      <path
         d="m 338.60281,579.97437 c 0.44271,-1.01562 0.92773,-1.71875 1.45508,-2.10938 0.52734,-0.39713 1.24674,-0.59569 2.1582,-0.5957 1.04817,1e-5 1.93359,0.37761 2.65625,1.13281 0.72265,0.75522 1.08398,1.73503 1.08399,2.93945 -10e-6,1.19141 -0.35158,2.17448 -1.05469,2.94922 -0.70314,0.76823 -1.48764,1.15235 -2.35351,1.15235 -0.64454,0 -1.2435,-0.23763 -1.79688,-0.7129 -0.36459,-0.31249 -0.86264,-1.00585 -1.49414,-2.08007 -0.41667,0.80729 -0.8724,1.38997 -1.36719,1.74804 -0.49479,0.35157 -1.09375,0.52735 -1.79687,0.52735 -0.9375,0 -1.73177,-0.33529 -2.38281,-1.00586 -0.64454,-0.67057 -0.9668,-1.53646 -0.9668,-2.59766 0,-1.07421 0.29948,-1.9401 0.89844,-2.59765 0.59895,-0.65755 1.29882,-0.98632 2.09961,-0.98633 0.55989,1e-5 1.05468,0.14649 1.48437,0.43945 0.42968,0.28647 0.88867,0.88542 1.37695,1.79688 m 0.9375,1.98242 c 0.48828,1.01563 0.97005,1.69922 1.44532,2.05078 0.47525,0.34505 1.0091,0.51758 1.60156,0.51758 0.80077,0 1.46809,-0.28646 2.00195,-0.85938 0.54035,-0.57942 0.81054,-1.35416 0.81055,-2.32422 -1e-5,-0.95702 -0.28322,-1.74804 -0.84961,-2.37304 -0.56642,-0.625 -1.20118,-0.9375 -1.9043,-0.9375 -0.44923,0 -0.84311,0.11394 -1.18164,0.34179 -0.33204,0.22788 -0.63477,0.59246 -0.9082,1.09375 -0.15626,0.29298 -0.4948,1.12306 -1.01563,2.49024 m -1.2207,-1.23047 c -0.31902,-0.71614 -0.6836,-1.24348 -1.09375,-1.58203 -0.41016,-0.33854 -0.91472,-0.50781 -1.51367,-0.50782 -0.69011,10e-6 -1.26953,0.24415 -1.73828,0.73243 -0.46224,0.48177 -0.69336,1.12956 -0.69336,1.94336 0,0.86589 0.22786,1.55924 0.68359,2.08007 0.46224,0.51433 0.98307,0.77149 1.5625,0.77149 0.61849,0 1.16536,-0.27669 1.64063,-0.83008 0.30598,-0.36458 0.6901,-1.23372 1.15234,-2.60742"
         style="font-size:20px;font-style:italic;font-variant:normal;font-stretch:normal;font-family:Times New Roman;-inkscape-font-specification:'Times New Roman,'"
         id="path6081" />
      <path
         d="m 288.24149,615.40405 0,0.36133 c -0.98308,-0.49479 -1.80339,-1.07422 -2.46094,-1.73828 -0.9375,-0.94401 -1.66016,-2.05729 -2.16797,-3.33984 -0.50781,-1.28255 -0.76172,-2.61393 -0.76172,-3.99414 0,-2.01823 0.49805,-3.85742 1.49414,-5.51758 0.99609,-1.66666 2.29492,-2.85806 3.89649,-3.57422 l 0,0.41015 c -0.80079,0.44273 -1.45834,1.04819 -1.97266,1.81641 -0.51433,0.76824 -0.89844,1.74155 -1.15234,2.91992 -0.25391,1.1784 -0.38087,2.40886 -0.38086,3.69141 -1e-5,1.39323 0.10742,2.65951 0.32226,3.79883 0.16927,0.89843 0.37435,1.61784 0.61524,2.1582 0.24088,0.54687 0.56314,1.07096 0.96679,1.57227 0.41015,0.50129 0.94401,0.97981 1.60157,1.43554"
         style="font-size:20px;font-variant:normal;font-stretch:normal;font-family:Times New Roman;-inkscape-font-specification:'Times New Roman,'"
         id="path6083" />
      <path
         d="m 291.78641,604.08569 c 0.86588,-1.20442 1.80012,-1.80663 2.80273,-1.80664 0.91796,10e-6 1.71874,0.39389 2.40235,1.18164 0.68358,0.78126 1.02538,1.85222 1.02539,3.21289 -1e-5,1.58855 -0.52736,2.86784 -1.58204,3.83789 -0.90495,0.83334 -1.91406,1.25 -3.02734,1.25 -0.52084,0 -1.05143,-0.0944 -1.5918,-0.2832 -0.53385,-0.1888 -1.08073,-0.472 -1.64062,-0.84961 l 0,-9.26758 c 0,-1.01561 -0.026,-1.64061 -0.0781,-1.875 -0.0456,-0.23436 -0.12044,-0.39386 -0.22461,-0.47851 -0.10416,-0.0846 -0.23437,-0.12694 -0.39062,-0.12695 -0.18229,10e-6 -0.41016,0.0521 -0.68359,0.15625 l -0.13672,-0.3418 2.68554,-1.09375 0.43946,0 0,6.48437 m 0,0.625 0,5.35157 c 0.33203,0.32552 0.67382,0.57291 1.02539,0.74218 0.35807,0.16276 0.72265,0.24414 1.09375,0.24414 0.59244,0 1.14257,-0.32552 1.65039,-0.97656 0.51431,-0.65104 0.77148,-1.5983 0.77148,-2.8418 0,-1.14582 -0.25717,-2.02473 -0.77148,-2.63671 -0.50782,-0.61849 -1.08725,-0.92773 -1.73828,-0.92774 -0.34506,1e-5 -0.69011,0.0879 -1.03516,0.26367 -0.26042,0.13022 -0.59245,0.39064 -0.99609,0.78125"
         style="font-size:20px;font-variant:normal;font-stretch:normal;font-family:Times New Roman;-inkscape-font-specification:'Times New Roman,'"
         id="path6085" />
      <path
         d="m 304.40359,610.19897 c -0.91797,0.70964 -1.49414,1.1198 -1.72851,1.23047 -0.35157,0.16276 -0.72592,0.24414 -1.12305,0.24414 -0.61849,0 -1.12956,-0.21158 -1.5332,-0.63476 -0.39714,-0.42318 -0.5957,-0.97982 -0.5957,-1.66992 0,-0.4362 0.0976,-0.8138 0.29296,-1.13282 0.26693,-0.4427 0.72917,-0.85937 1.38672,-1.25 0.66406,-0.39062 1.76432,-0.86588 3.30078,-1.42578 l 0,-0.35156 c 0,-0.89192 -0.14323,-1.5039 -0.42968,-1.83594 -0.27996,-0.33202 -0.69011,-0.49804 -1.23047,-0.49804 -0.41016,0 -0.73568,0.11068 -0.97656,0.33203 -0.2474,0.22136 -0.3711,0.47527 -0.3711,0.76172 l 0.0195,0.5664 c 0,0.29949 -0.0781,0.53061 -0.23437,0.69336 -0.14974,0.16277 -0.34831,0.24415 -0.5957,0.24414 -0.24089,1e-5 -0.43946,-0.0846 -0.59571,-0.2539 -0.14974,-0.16927 -0.22461,-0.40039 -0.22461,-0.69336 0,-0.55989 0.28646,-1.07421 0.85938,-1.54297 0.57291,-0.46874 1.37695,-0.70312 2.41211,-0.70313 0.79426,10e-6 1.4453,0.13348 1.95312,0.40039 0.38411,0.20183 0.66731,0.51759 0.84961,0.94727 0.11718,0.27995 0.17578,0.85287 0.17578,1.71875 l 0,3.03711 c 0,0.85287 0.0163,1.37695 0.0488,1.57226 0.0325,0.18881 0.0846,0.31576 0.15625,0.38086 0.0781,0.0651 0.16601,0.0977 0.26367,0.0977 0.10416,0 0.19531,-0.0228 0.27344,-0.0684 0.13671,-0.0846 0.40038,-0.32226 0.79102,-0.71289 l 0,0.54687 c -0.72918,0.97657 -1.42579,1.46485 -2.08985,1.46485 -0.31901,0 -0.57292,-0.11068 -0.76172,-0.33203 -0.1888,-0.22136 -0.28646,-0.59896 -0.29297,-1.13282 m 0,-0.63476 0,-3.4082 c -0.98307,0.39063 -1.61784,0.66732 -1.90429,0.83007 -0.51433,0.28647 -0.88217,0.58595 -1.10352,0.89844 -0.22135,0.3125 -0.33203,0.6543 -0.33203,1.02539 0,0.46875 0.13997,0.85938 0.41992,1.17188 0.27995,0.30599 0.60221,0.45898 0.9668,0.45898 0.49479,0 1.14583,-0.32552 1.95312,-0.97656"
         style="font-size:20px;font-variant:normal;font-stretch:normal;font-family:Times New Roman;-inkscape-font-specification:'Times New Roman,'"
         id="path6087" />
      <path
         d="m 310.81961,602.27905 0,2.01172 c 0.74869,-1.34114 1.51692,-2.01171 2.30469,-2.01172 0.35807,10e-6 0.65429,0.11069 0.88867,0.33203 0.23437,0.21486 0.35156,0.46551 0.35156,0.75196 0,0.25391 -0.0846,0.46875 -0.2539,0.64453 -0.16928,0.17579 -0.3711,0.26368 -0.60547,0.26367 -0.22787,10e-6 -0.48503,-0.11067 -0.77149,-0.33203 -0.27995,-0.22786 -0.48828,-0.34179 -0.625,-0.3418 -0.11719,1e-5 -0.24414,0.0651 -0.38086,0.19531 -0.29297,0.26694 -0.5957,0.70639 -0.9082,1.31836 l 0,4.28711 c 0,0.4948 0.0618,0.86915 0.18555,1.12305 0.0846,0.17578 0.23437,0.32227 0.44922,0.43945 0.21484,0.11719 0.52408,0.17578 0.92773,0.17578 l 0,0.35157 -4.58008,0 0,-0.35157 c 0.45573,0 0.79427,-0.0716 1.01563,-0.21484 0.16276,-0.10417 0.27669,-0.27018 0.34179,-0.49805 0.0326,-0.11067 0.0488,-0.42643 0.0488,-0.94726 l 0,-3.4668 c 0,-1.04166 -0.0228,-1.66015 -0.0684,-1.85547 -0.0391,-0.20181 -0.11719,-0.3483 -0.23437,-0.43945 -0.11068,-0.0911 -0.25065,-0.13671 -0.41992,-0.13672 -0.20183,10e-6 -0.42969,0.0488 -0.6836,0.14649 l -0.0976,-0.35157 2.70507,-1.09375 0.41016,0"
         style="font-size:20px;font-variant:normal;font-stretch:normal;font-family:Times New Roman;-inkscape-font-specification:'Times New Roman,'"
         id="path6089" />
      <path
         d="m 317.4993,602.27905 0,2.01172 c 0.74869,-1.34114 1.51692,-2.01171 2.30469,-2.01172 0.35806,10e-6 0.65429,0.11069 0.88867,0.33203 0.23437,0.21486 0.35155,0.46551 0.35156,0.75196 -10e-6,0.25391 -0.0846,0.46875 -0.25391,0.64453 -0.16927,0.17579 -0.3711,0.26368 -0.60547,0.26367 -0.22787,10e-6 -0.48503,-0.11067 -0.77148,-0.33203 -0.27995,-0.22786 -0.48829,-0.34179 -0.625,-0.3418 -0.11719,1e-5 -0.24414,0.0651 -0.38086,0.19531 -0.29297,0.26694 -0.59571,0.70639 -0.9082,1.31836 l 0,4.28711 c -1e-5,0.4948 0.0618,0.86915 0.18554,1.12305 0.0846,0.17578 0.23438,0.32227 0.44922,0.43945 0.21484,0.11719 0.52409,0.17578 0.92774,0.17578 l 0,0.35157 -4.58008,0 0,-0.35157 c 0.45573,0 0.79427,-0.0716 1.01562,-0.21484 0.16276,-0.10417 0.2767,-0.27018 0.3418,-0.49805 0.0326,-0.11067 0.0488,-0.42643 0.0488,-0.94726 l 0,-3.4668 c 0,-1.04166 -0.0228,-1.66015 -0.0684,-1.85547 -0.0391,-0.20181 -0.11719,-0.3483 -0.23437,-0.43945 -0.11068,-0.0911 -0.25066,-0.13671 -0.41993,-0.13672 -0.20182,10e-6 -0.42968,0.0488 -0.68359,0.14649 l -0.0977,-0.35157 2.70508,-1.09375 0.41016,0"
         style="font-size:20px;font-variant:normal;font-stretch:normal;font-family:Times New Roman;-inkscape-font-specification:'Times New Roman,'"
         id="path6091" />
      <path
         d="m 323.83719,597.60132 c 0.27343,10e-6 0.50455,0.0977 0.69336,0.29297 0.19531,0.18881 0.29296,0.41993 0.29297,0.69336 -10e-6,0.27345 -0.0977,0.50782 -0.29297,0.70312 -0.18881,0.19533 -0.41993,0.29298 -0.69336,0.29297 -0.27344,10e-6 -0.50782,-0.0976 -0.70313,-0.29297 -0.19531,-0.1953 -0.29297,-0.42967 -0.29297,-0.70312 0,-0.27343 0.0944,-0.50455 0.28321,-0.69336 0.19531,-0.1953 0.43294,-0.29296 0.71289,-0.29297 m 0.81055,4.67773 0,7.1875 c -10e-6,0.5599 0.039,0.93425 0.11718,1.12305 0.0846,0.18229 0.20508,0.31901 0.36133,0.41016 0.16276,0.0911 0.45573,0.13671 0.87891,0.13671 l 0,0.35157 -4.34571,0 0,-0.35157 c 0.4362,0 0.72917,-0.0423 0.87891,-0.12695 0.14974,-0.0846 0.26693,-0.22461 0.35156,-0.41992 0.0911,-0.19531 0.13672,-0.56966 0.13672,-1.12305 l 0,-3.44726 c 0,-0.97005 -0.0293,-1.5983 -0.0879,-1.88477 -0.0456,-0.20832 -0.11719,-0.35155 -0.21484,-0.42969 -0.0977,-0.0846 -0.23112,-0.12694 -0.40039,-0.12695 -0.1823,10e-6 -0.40365,0.0488 -0.66407,0.14649 l -0.13671,-0.35157 2.69531,-1.09375 0.42969,0"
         style="font-size:20px;font-variant:normal;font-stretch:normal;font-family:Times New Roman;-inkscape-font-specification:'Times New Roman,'"
         id="path6093" />
      <path
         d="m 328.61258,605.91187 c -0.007,1.32812 0.31575,2.36979 0.9668,3.125 0.65103,0.75521 1.41601,1.13281 2.29492,1.13281 0.58593,0 1.09374,-0.15951 1.52344,-0.47852 0.43619,-0.32552 0.80077,-0.8789 1.09375,-1.66015 l 0.30273,0.19531 c -0.13673,0.89193 -0.53386,1.70573 -1.19141,2.4414 -0.65755,0.72917 -1.48112,1.09375 -2.4707,1.09375 -1.07422,0 -1.99544,-0.41666 -2.76367,-1.25 -0.76172,-0.83984 -1.14258,-1.96614 -1.14258,-3.3789 0,-1.52994 0.39062,-2.72135 1.17188,-3.57422 0.78775,-0.85937 1.77408,-1.28905 2.95898,-1.28906 1.0026,1e-5 1.82617,0.33204 2.4707,0.99609 0.64453,0.65756 0.96679,1.53972 0.9668,2.64649 l -6.18164,0 m 0,-0.56641 4.14062,0 c -0.0326,-0.57291 -0.10091,-0.97656 -0.20507,-1.21094 -0.16277,-0.36457 -0.40691,-0.65103 -0.73243,-0.85937 -0.31901,-0.20833 -0.6543,-0.31249 -1.00586,-0.3125 -0.54036,10e-6 -1.02539,0.21159 -1.45507,0.63476 -0.42318,0.41668 -0.67058,0.99936 -0.74219,1.74805"
         style="font-size:20px;font-variant:normal;font-stretch:normal;font-family:Times New Roman;-inkscape-font-specification:'Times New Roman,'"
         id="path6095" />
      <path
         d="m 338.59305,602.27905 0,2.01172 c 0.74869,-1.34114 1.51692,-2.01171 2.30469,-2.01172 0.35806,10e-6 0.65429,0.11069 0.88867,0.33203 0.23437,0.21486 0.35155,0.46551 0.35156,0.75196 -10e-6,0.25391 -0.0846,0.46875 -0.25391,0.64453 -0.16927,0.17579 -0.3711,0.26368 -0.60547,0.26367 -0.22787,10e-6 -0.48503,-0.11067 -0.77148,-0.33203 -0.27995,-0.22786 -0.48829,-0.34179 -0.625,-0.3418 -0.11719,1e-5 -0.24414,0.0651 -0.38086,0.19531 -0.29297,0.26694 -0.59571,0.70639 -0.9082,1.31836 l 0,4.28711 c -1e-5,0.4948 0.0618,0.86915 0.18554,1.12305 0.0846,0.17578 0.23438,0.32227 0.44922,0.43945 0.21484,0.11719 0.52409,0.17578 0.92774,0.17578 l 0,0.35157 -4.58008,0 0,-0.35157 c 0.45573,0 0.79427,-0.0716 1.01562,-0.21484 0.16276,-0.10417 0.2767,-0.27018 0.3418,-0.49805 0.0326,-0.11067 0.0488,-0.42643 0.0488,-0.94726 l 0,-3.4668 c 0,-1.04166 -0.0228,-1.66015 -0.0684,-1.85547 -0.0391,-0.20181 -0.11719,-0.3483 -0.23437,-0.43945 -0.11068,-0.0911 -0.25066,-0.13671 -0.41993,-0.13672 -0.20182,10e-6 -0.42968,0.0488 -0.68359,0.14649 l -0.0977,-0.35157 2.70508,-1.09375 0.41016,0"
         style="font-size:20px;font-variant:normal;font-stretch:normal;font-family:Times New Roman;-inkscape-font-specification:'Times New Roman,'"
         id="path6097" />
      <path
         d="m 342.47977,598.01147 0,-0.41015 c 0.98958,0.48829 1.81315,1.06446 2.4707,1.72851 0.93099,0.95054 1.65039,2.06707 2.1582,3.34961 0.50781,1.27605 0.76172,2.60743 0.76172,3.99414 0,2.01824 -0.49805,3.85743 -1.49414,5.51758 -0.98959,1.66667 -2.28841,2.85807 -3.89648,3.57422 l 0,-0.36133 c 0.80078,-0.44922 1.45833,-1.05794 1.97265,-1.82617 0.52083,-0.76172 0.90495,-1.73177 1.15235,-2.91016 0.2539,-1.18489 0.38085,-2.41861 0.38086,-3.70117 -1e-5,-1.38671 -0.10743,-2.65298 -0.32227,-3.79883 -0.16276,-0.89842 -0.36784,-1.61782 -0.61523,-2.1582 -0.24089,-0.54035 -0.56316,-1.06118 -0.9668,-1.5625 -0.40365,-0.50129 -0.9375,-0.9798 -1.60156,-1.43555"
         style="font-size:20px;font-variant:normal;font-stretch:normal;font-family:Times New Roman;-inkscape-font-specification:'Times New Roman,'"
         id="path6099" />
    </g>
    <path
       style="fill:none;stroke:#000000;stroke-width:1px;stroke-linecap:butt;stroke-linejoin:miter;stroke-opacity:1"
       d="m 267.63367,623.20704 0,-176.2136"
       id="path5954"
       sodipodi:nodetypes="cc" />
    <path
       style="fill:none;stroke:#000000;stroke-width:2;stroke-linecap:butt;stroke-linejoin:miter;stroke-opacity:1;stroke-miterlimit:4;stroke-dasharray:none;marker-end:url(#Arrow1Mend)"
       d="m 0.23598831,191.36379 264.77888169,0"
       id="path6101"
       transform="translate(90.0827,431.12753)"
       sodipodi:nodetypes="cc" />
  </g>
</svg>
